<?xml version="1.0" encoding="UTF-8" standalone="no"?>
<!-- Created with Inkscape (http://www.inkscape.org/) -->

<svg
   width="3.8450413in"
   height="1.2733982in"
   viewBox="0 0 97.664043 32.344313"
   version="1.1"
   id="svg5"
   inkscape:version="1.1.1 (3bf5ae0d25, 2021-09-20)"
   sodipodi:docname="4rest.svg"
   xmlns:inkscape="http://www.inkscape.org/namespaces/inkscape"
   xmlns:sodipodi="http://sodipodi.sourceforge.net/DTD/sodipodi-0.dtd"
   xmlns:xlink="http://www.w3.org/1999/xlink"
   xmlns="http://www.w3.org/2000/svg"
   xmlns:svg="http://www.w3.org/2000/svg">
  <sodipodi:namedview
     id="namedview7"
     pagecolor="#ffffff"
     bordercolor="#999999"
     borderopacity="1"
     inkscape:pageshadow="0"
     inkscape:pageopacity="0"
     inkscape:pagecheckerboard="0"
     inkscape:document-units="mm"
     showgrid="false"
     inkscape:zoom="1.4467452"
     inkscape:cx="-5.8752571"
     inkscape:cy="177.98573"
     inkscape:window-width="1920"
     inkscape:window-height="1001"
     inkscape:window-x="-9"
     inkscape:window-y="-9"
     inkscape:window-maximized="1"
     inkscape:current-layer="layer3"
     inkscape:snap-smooth-nodes="true"
     units="in"
     fit-margin-top="0.2"
     fit-margin-left="0.2"
     fit-margin-right="0.2"
     fit-margin-bottom="0.2" />
  <defs
     id="defs2">
    <linearGradient
       inkscape:collect="always"
       id="linearGradient61572">
      <stop
         style="stop-color:#008000;stop-opacity:1;"
         offset="0"
         id="stop61568" />
      <stop
         style="stop-color:#008c00;stop-opacity:0"
         offset="1"
         id="stop61570" />
    </linearGradient>
    <linearGradient
       inkscape:collect="always"
       id="linearGradient54869">
      <stop
         style="stop-color:#008000;stop-opacity:1;"
         offset="0"
         id="stop54865" />
      <stop
         style="stop-color:#004100;stop-opacity:0"
         offset="1"
         id="stop54867" />
    </linearGradient>
    <linearGradient
       inkscape:collect="always"
       id="linearGradient37822">
      <stop
         style="stop-color:#008000;stop-opacity:1;"
         offset="0"
         id="stop37818" />
      <stop
         style="stop-color:#008000;stop-opacity:0;"
         offset="1"
         id="stop37820" />
    </linearGradient>
    <rect
       x="220.91814"
       y="487.77945"
       width="49.85321"
       height="46.920666"
       id="rect1984" />
    <rect
       x="172.04245"
       y="427.17358"
       width="43.010612"
       height="65.493431"
       id="rect1516" />
    <inkscape:path-effect
       effect="spiro"
       id="path-effect21762"
       is_visible="true"
       lpeversion="1" />
    <inkscape:path-effect
       effect="spiro"
       id="path-effect21362"
       is_visible="true"
       lpeversion="1" />
    <clipPath
       clipPathUnits="userSpaceOnUse"
       id="clipPath18704">
      <path
         style="fill:#00ff00;stroke:#000000;stroke-width:0;stroke-linecap:butt;stroke-linejoin:miter;stroke-miterlimit:4;stroke-dasharray:none;stroke-opacity:1"
         d="M 71.900219,113.02301 73.193389,78.6247 81.98694,61.037597 58.192625,60.778961 46.295466,113.28164 Z"
         id="path18706" />
    </clipPath>
    <clipPath
       clipPathUnits="userSpaceOnUse"
       id="clipPath17368">
      <rect
         style="fill:#c83737;stroke-width:0.220324"
         id="rect17370"
         width="24.570219"
         height="32.005947"
         x="14.483504"
         y="78.689369"
         ry="0.27751184" />
    </clipPath>
    <clipPath
       clipPathUnits="userSpaceOnUse"
       id="clipPath18604">
      <rect
         style="fill:#aa0000;stroke-width:1.15825"
         id="rect18606"
         width="14.415593"
         height="18.684925"
         x="55.250404"
         y="173.81161"
         transform="matrix(0.90402716,-0.42747502,0.45541505,0.89027925,0,0)" />
    </clipPath>
    <linearGradient
       inkscape:collect="always"
       xlink:href="#linearGradient37822"
       id="linearGradient37824"
       x1="128.1109"
       y1="176.51926"
       x2="138.45959"
       y2="176.51926"
       gradientUnits="userSpaceOnUse"
       gradientTransform="matrix(0.91164021,0,0,0.91164021,11.319852,16.409694)" />
    <linearGradient
       inkscape:collect="always"
       xlink:href="#linearGradient37822"
       id="linearGradient44751"
       gradientUnits="userSpaceOnUse"
       gradientTransform="matrix(0.91164021,0,0,0.91164021,46.747832,43.224911)"
       x1="128.1109"
       y1="176.51926"
       x2="138.45959"
       y2="176.51926" />
    <linearGradient
       inkscape:collect="always"
       xlink:href="#linearGradient54869"
       id="linearGradient54871"
       x1="169.43997"
       y1="190.01416"
       x2="144.38516"
       y2="155.26663"
       gradientUnits="userSpaceOnUse" />
    <linearGradient
       inkscape:collect="always"
       xlink:href="#linearGradient61572"
       id="linearGradient57980"
       gradientUnits="userSpaceOnUse"
       x1="169.43997"
       y1="190.01416"
       x2="144.38516"
       y2="155.26663"
       gradientTransform="matrix(1.0336325,0,0,1,26.419853,1.0058498)" />
    <linearGradient
       inkscape:collect="always"
       xlink:href="#linearGradient61572"
       id="linearGradient325"
       gradientUnits="userSpaceOnUse"
       gradientTransform="matrix(1.2136226,0,0,1.0000899,-3.114098,25.769666)"
       x1="169.43997"
       y1="190.01416"
       x2="144.38516"
       y2="155.26663" />
    <linearGradient
       inkscape:collect="always"
       xlink:href="#linearGradient61572"
       id="linearGradient3403"
       gradientUnits="userSpaceOnUse"
       gradientTransform="matrix(1.2136226,0,0,1.0000899,-132.22863,81.594328)"
       x1="169.43997"
       y1="190.01416"
       x2="144.38516"
       y2="155.26663" />
  </defs>
  <g
     inkscape:label="Layer 1"
     inkscape:groupmode="layer"
     id="layer1"
     transform="translate(3.8830261,4.0933474)">
    <g
       aria-label="4"
       transform="translate(15.259399,64.658471)"
       id="text891"
       clip-path="url(#clipPath18704)"
       style="font-size:105.833px;line-height:1.25;stroke-width:0.264583">
      <path
         style="fill:none;stroke:#002300;stroke-width:0.765;stroke-linecap:butt;stroke-linejoin:miter;stroke-miterlimit:4;stroke-dasharray:none;stroke-opacity:1"
         d="m 100.47926,118.45432 c -36.596692,6.20721 26.38066,-11.89716 26.38066,-11.89716"
         id="path20688" />
      <path
         style="fill:#000f74;fill-opacity:0.682857;stroke:#003c00;stroke-width:0.264583px;stroke-linecap:butt;stroke-linejoin:miter;stroke-opacity:1"
         d="m 121.68724,75.779725 c 3.20374,1.42388 5.8486,4.064807 7.27724,7.266429 1.42864,3.201622 1.62767,6.933931 0.54764,10.269335 -1.08004,3.335403 -3.42902,6.24264 -6.46316,7.999171 -3.03414,1.75653 -6.72499,2.3459 -10.15527,1.62162 -3.2612,-0.68858 -6.26076,-2.55438 -8.32002,-5.175256 -2.05926,-2.620877 -3.16242,-5.976714 -3.05987,-9.308236 0.14411,-4.681762 2.74417,-9.219356 6.71045,-11.710996 3.96628,-2.491639 9.18271,-2.864406 13.46299,-0.962067 z"
         id="path21360"
         inkscape:path-effect="#path-effect21362"
         inkscape:original-d="m 121.68724,75.779725 c 6.72422,-4.224618 -5.8621,18.104639 -8.79355,27.156555 -2.93145,9.05193 -7.58633,-9.655397 -11.37989,-14.483492 -3.793564,-4.828098 13.44923,-8.448445 20.17344,-12.673063 z" />
      <path
         style="fill:none;stroke:#000000;stroke-width:0.264583px;stroke-linecap:butt;stroke-linejoin:miter;stroke-opacity:1"
         d="m 122.59246,92.332294 c -1.9935,1.295736 -3.39375,3.468537 -3.75019,5.819264 -0.22187,1.46323 -0.0505,2.984212 0.49132,4.361402 0.54184,1.3772 1.45284,2.60717 2.61228,3.52693"
         id="path21760"
         inkscape:path-effect="#path-effect21762"
         inkscape:original-d="m 122.59246,92.332294 c -1.2498,1.94002 -2.49986,3.879773 -3.75019,5.819264 -1.25033,1.939492 2.06934,5.259152 3.1036,7.888332" />
      <rect
         style="fill:#0000ff;fill-rule:evenodd;stroke-width:0.0700042"
         id="rect39"
         width="19.914806"
         height="6.336535"
         x="102.67765"
         y="92.332298" />
      <rect
         style="fill:#0000ff;fill-rule:evenodd;stroke-width:0.0700042"
         id="rect65"
         width="0.77590996"
         height="0.90521383"
         x="121.94587"
         y="105.13467"
         ry="0.38795498" />
      <rect
         style="fill:#0000ff;fill-rule:evenodd"
         id="rect67"
         width="0"
         height="0"
         x="0"
         y="0"
         transform="matrix(0.26458333,0,0,0.26458333,-15.259399,-64.658471)" />
      <text
         xml:space="preserve"
         transform="matrix(0.26458333,0,0,0.26458333,-15.259399,-64.658471)"
         id="text1514"
         style="font-style:normal;font-weight:normal;font-size:40px;line-height:1.25;font-family:sans-serif;white-space:pre;shape-inside:url(#rect1516);fill:#000000;fill-opacity:1;stroke:none" />
      <text
         xml:space="preserve"
         transform="matrix(0.26458333,0,0,0.26458333,-15.259399,-64.658471)"
         id="text1982"
         style="font-style:normal;font-weight:normal;font-size:40px;line-height:1.25;font-family:sans-serif;white-space:pre;shape-inside:url(#rect1984);fill:#000000;fill-opacity:1;stroke:none"><tspan
           x="220.91797"
           y="524.27251"
           id="tspan22173">4</tspan></text>
      <text
         xml:space="preserve"
         style="font-style:normal;font-weight:normal;font-size:10.5833px;line-height:1.25;font-family:sans-serif;fill:#000000;fill-opacity:1;stroke:none;stroke-width:0.0700042"
         x="39.312351"
         y="60.520329"
         id="text5096"><tspan
           sodipodi:role="line"
           id="tspan5094"
           style="stroke-width:0.0700042"
           x="39.312351"
           y="60.520329" /></text>
    </g>
    <text
       xml:space="preserve"
       style="font-style:normal;font-weight:normal;font-size:42.3333px;line-height:1.25;font-family:sans-serif;fill:#000000;fill-opacity:1;stroke:none;stroke-width:0.0700042"
       x="21.91922"
       y="99.056786"
       id="text7208"
       transform="translate(246.0562,113.67079)"
       clip-path="url(#clipPath17368)"><tspan
         sodipodi:role="line"
         id="tspan7206"
         style="font-style:normal;font-variant:normal;font-weight:normal;font-stretch:normal;font-size:42.3333px;font-family:'Franklin Gothic Demi';-inkscape-font-specification:'Franklin Gothic Demi, Normal';font-variant-ligatures:normal;font-variant-caps:normal;font-variant-numeric:normal;font-variant-east-asian:normal;stroke-width:0.0700042"
         x="21.91922"
         y="99.056786">4</tspan></text>
    <rect
       style="fill:#784421;stroke-width:1.1556;stroke-linecap:round;stroke-linejoin:round;stroke-miterlimit:4;stroke-dasharray:none;paint-order:markers stroke fill"
       id="rect22130"
       width="2.8397851"
       height="24.623594"
       x="314.31693"
       y="219.02261"
       ry="1.4198925" />
    <path
       style="fill:#bcddb0;fill-opacity:0.765714;stroke:#000000;stroke-width:0.05;stroke-linecap:butt;stroke-linejoin:round;stroke-miterlimit:4;stroke-dasharray:none;stroke-opacity:1;paint-order:markers stroke fill"
       d="m 390.18948,152.66169 -0.0615,6.39481 -2.63713,3e-5 -0.0151,-6.35179 -7.73422,0.0362 3.91773,-12.28187 2.72839,0.0268 -3.08128,9.62025 6.86224,-0.0241 z"
       id="path57976"
       sodipodi:nodetypes="cccccccccc" />
  </g>
  <g
     inkscape:groupmode="layer"
     id="layer2"
     inkscape:label="Layer 2"
     transform="translate(3.8830261,4.0933474)">
    <path
       style="fill:#008000;stroke:#000000;stroke-width:0.7;stroke-linecap:round;stroke-linejoin:round;stroke-miterlimit:4;stroke-dasharray:none;stroke-opacity:1;paint-order:normal"
       d="m 317.02021,236.02172 c 9.59514,0 9.63188,-1.43985 9.63188,-1.43985 l -4.07247,-3.55514 c 1.23414,0.13174 2.80594,-0.13974 3.2763,-0.69082 l -4.27248,-3.6478 c 1.05993,0.0648 1.74463,-0.42827 2.66019,-0.99949 l -7.24024,-6.5091 z"
       id="path16439"
       sodipodi:nodetypes="cccccccc" />
    <path
       style="fill:#008000;stroke:#000000;stroke-width:0.7;stroke-linecap:round;stroke-linejoin:round;stroke-miterlimit:4;stroke-dasharray:none;stroke-opacity:1;paint-order:normal"
       d="m 314.34074,236.02172 c -9.59515,0 -9.63188,-1.43985 -9.63188,-1.43985 l 4.07246,-3.55514 c -1.23414,0.13174 -2.80593,-0.13974 -3.2763,-0.69082 l 4.27248,-3.6478 c -1.05992,0.0648 -1.74463,-0.42827 -2.66018,-0.99949 l 7.24023,-6.5091 z"
       id="path21296"
       sodipodi:nodetypes="cccccccc" />
    <rect
       style="fill:#ffffff;fill-opacity:1;stroke:#ffffff;stroke-width:0;stroke-linecap:round;stroke-linejoin:round;stroke-miterlimit:4;stroke-dasharray:none;stroke-opacity:1;paint-order:markers stroke fill"
       id="rect38000"
       width="10.797965"
       height="11.961817"
       x="128.47772"
       y="172.97852"
       ry="0.37037629" />
  </g>
  <g
     inkscape:groupmode="layer"
     id="layer3"
     inkscape:label="Layer 3"
     transform="translate(3.8830261,4.0933474)">
    <g
       id="g21613"
       transform="translate(194.95197,-33.650247)">
      <g
         id="g20917"
         transform="matrix(1.4124559,0,0,1.4124559,-37.65645,-67.898182)">
        <rect
           style="fill:#008000;stroke-width:0.239735"
           id="rect18169"
           width="3.5176671"
           height="18.191776"
           x="67.157295"
           y="170.22681"
           ry="0" />
        <g
           id="g22528">
          <rect
             style="fill:#008000;stroke-width:0.214621"
             id="rect18251"
             width="3.5778582"
             height="14.334745"
             x="-182.92326"
             y="56.637531"
             ry="0"
             transform="matrix(0.00155899,-0.99999878,0.99999612,0.00278599,0,0)" />
          <rect
             style="fill:#008000;stroke-width:0.18857"
             id="rect18355"
             width="3.2774432"
             height="12.080326"
             x="133.46701"
             y="127.51"
             ry="0"
             transform="matrix(0.90810597,0.41874043,-0.46453416,0.8855552,0,0)"
             clip-path="url(#clipPath18604)" />
        </g>
        <g
           id="g22534"
           transform="translate(37.537418,17.212279)">
          <rect
             style="fill:#008000;stroke-width:0.146693"
             id="rect22530"
             width="2.3718135"
             height="10.101967"
             x="-181.33043"
             y="64.894997"
             ry="0"
             transform="matrix(0.0016573,-0.99999863,0.99999657,0.00262073,0,0)" />
          <rect
             style="fill:#008000;stroke-width:0.18857"
             id="rect22532"
             width="3.2774432"
             height="12.080326"
             x="133.46701"
             y="127.51"
             ry="0"
             transform="matrix(0.66256565,0.41874043,-0.33893003,0.8855552,23.480555,-0.37464297)"
             clip-path="url(#clipPath18604)" />
        </g>
      </g>
      <rect
         style="fill:#784421;stroke-width:1.23201;stroke-linecap:round;stroke-linejoin:round;stroke-miterlimit:4;stroke-dasharray:none;paint-order:markers stroke fill"
         id="rect22536"
         width="3.227736"
         height="24.623594"
         x="116.8839"
         y="196.00301"
         ry="0" />
      <path
         style="fill:#ffd5d5;stroke:#000000;stroke-width:0.7;stroke-linecap:butt;stroke-linejoin:round;stroke-miterlimit:4;stroke-dasharray:none;stroke-opacity:1"
         d="m 131.13695,185.00499 -0.007,6.2871 -2.63713,3e-5 -0.0151,-6.35179 c -3.36541,-1.11262 -10.83916,0.18893 -10.34643,-0.0494 1.54404,-2.73054 4.14082,-6.75507 4.6554,-12.05881 l 3.13595,0.0323 c -0.78274,2.61649 -1.44962,5.18141 -2.97151,9.06883 l 8.01763,0.0808 c 0,0 0.0151,2.04782 0.16822,2.9909 z"
         id="path22791"
         sodipodi:nodetypes="ccccccccccc" />
      <path
         style="fill:#008000;stroke:#000000;stroke-width:0.7;stroke-linecap:round;stroke-linejoin:round;stroke-miterlimit:4;stroke-dasharray:none;stroke-opacity:1;paint-order:normal"
         d="m 119.97513,213.00211 c 9.59514,0 9.63188,-1.43985 9.63188,-1.43985 l -4.07247,-3.55514 c 1.23414,0.13174 2.80594,-0.13974 3.2763,-0.69082 l -4.27248,-3.6478 c 1.05993,0.0648 1.74463,-0.42827 2.66019,-0.99949 l -7.24024,-6.5091 z"
         id="path22538"
         sodipodi:nodetypes="cccccccc" />
      <path
         style="fill:url(#linearGradient37824);fill-opacity:1;stroke:#000000;stroke-width:0.638148;stroke-linecap:round;stroke-linejoin:round;stroke-miterlimit:4;stroke-dasharray:none;stroke-opacity:1;paint-order:normal"
         d="m 128.44531,185.00874 c 8.74731,0 8.78081,-1.31262 8.78081,-1.31262 l -3.71263,-3.24101 c 1.12509,0.1201 2.55801,-0.12739 2.98681,-0.62978 l -3.89497,-3.32548 c 0.96628,0.0591 1.59048,-0.39043 2.42514,-0.91117 l -6.6005,-5.93396 z"
         id="path22754"
         sodipodi:nodetypes="cccccccc" />
      <g
         id="g21578">
        <path
           style="fill:#bcddb0;fill-opacity:1;stroke:#000000;stroke-width:0.5;stroke-linecap:butt;stroke-linejoin:round;stroke-miterlimit:4;stroke-dasharray:none;stroke-opacity:1"
           d="m 163.27014,185.4138 -0.007,6.2871 -2.63713,3e-5 -0.0151,-6.35179 c -3.36541,-1.11262 -9.42183,0.0975 -8.9291,-0.14084 1.54404,-2.73054 4.36943,-6.80079 4.88401,-12.10453 l 3.31883,0.16946 c -0.78274,2.61649 -1.99827,5.18141 -3.52016,9.06883 l 6.87462,0.0808 c 0,0 0.0855,2.88323 0.0311,2.9909 z"
           id="path43865"
           sodipodi:nodetypes="ccccccccccc" />
        <path
           style="fill:#ffd5d5;stroke:#000000;stroke-width:0.7;stroke-linecap:butt;stroke-linejoin:round;stroke-miterlimit:4;stroke-dasharray:none;stroke-opacity:1"
           d="m 163.87322,211.82399 c -2.15469,-1.07326 -9.81442,-0.17321 -9.81442,-0.17321 1.54404,-2.73054 2.59552,-6.83312 3.1101,-12.13686 l 3.22739,0.0323 c -0.78274,2.61649 -0.64464,5.22713 -2.16653,9.11455 l 5.68101,0.0579 c 0,0 0.0171,2.99757 -0.0377,3.10524 z"
           id="path44753"
           sodipodi:nodetypes="cccccccc" />
        <path
           style="fill:url(#linearGradient54871);fill-opacity:1;stroke:#000000;stroke-width:0.5;stroke-linecap:round;stroke-linejoin:round;stroke-miterlimit:4;stroke-dasharray:none;stroke-opacity:1;paint-order:normal"
           d="m 163.32464,185.30609 -0.0615,6.39481 2.66326,-0.0117 0.0334,-6.52616 c 0,0 5.59512,-0.15332 6.14572,-1.16956 l -3.71263,-3.24101 c 1.12509,0.1201 2.55801,-0.12739 2.98681,-0.62978 l -3.89497,-3.32548 c 0.96628,0.0591 1.59048,-0.39043 2.42514,-0.91117 l -6.6005,-5.93396 z"
           id="path39179"
           sodipodi:nodetypes="ccccccccccc" />
        <path
           style="fill:url(#linearGradient44751);fill-opacity:1;stroke:#000000;stroke-width:0.638148;stroke-linecap:round;stroke-linejoin:round;stroke-miterlimit:4;stroke-dasharray:none;stroke-opacity:1;paint-order:normal"
           d="m 163.87329,211.82391 -0.0615,6.39485 2.66326,-0.0117 0.0334,-6.52616 c 0,0 5.59512,-0.15332 6.14572,-1.16956 l -3.71263,-3.24101 c 1.12509,0.1201 2.55801,-0.12739 2.98681,-0.62978 l -3.89497,-3.32548 c 0.96628,0.0591 1.59048,-0.39043 2.42514,-0.91117 l -6.6005,-5.934 z"
           id="path44749"
           sodipodi:nodetypes="ccccccccccc" />
        <g
           id="g21565">
          <rect
             style="fill:#241c1c;fill-opacity:0;stroke:#ffffff;stroke-width:0;stroke-linecap:round;stroke-linejoin:miter;stroke-miterlimit:4;stroke-dasharray:none;stroke-opacity:1;paint-order:markers stroke fill"
             id="rect62888"
             width="6.54667"
             height="1.7619433"
             x="183.61389"
             y="181.25386" />
          <path
             style="fill:#bcddb0;fill-opacity:0.765714;stroke:#000000;stroke-width:0.05;stroke-linecap:butt;stroke-linejoin:round;stroke-miterlimit:4;stroke-dasharray:none;stroke-opacity:1;paint-order:markers stroke fill"
             d="m 195.10035,211.09242 -0.0615,6.39481 -2.63713,3e-5 -0.0151,-6.35179 -7.73422,0.0362 3.91773,-12.28187 2.72839,0.0268 -3.08128,9.62025 6.86224,-0.0241 z"
             id="path165"
             sodipodi:nodetypes="cccccccccc" />
          <path
             style="fill:url(#linearGradient57980);fill-opacity:1;stroke:#000000;stroke-width:0.0508339;stroke-linecap:round;stroke-linejoin:round;stroke-miterlimit:4;stroke-dasharray:none;stroke-opacity:1;paint-order:markers stroke fill"
             d="m 195.23751,186.31194 -0.0635,6.39481 2.75283,-0.0117 0.0345,-6.52616 c 0,0 5.7833,-0.15332 6.35242,-1.16956 l -3.8375,-3.24101 c 1.16294,0.1201 2.64405,-0.12739 3.08727,-0.62978 l -3.79205,-3.32548 c 0,0 1.77763,-0.002 2.3062,-0.68487 l -6.85591,-6.16026 z"
             id="path57978"
             sodipodi:nodetypes="ccccccccccc" />
          <path
             style="fill:url(#linearGradient325);fill-opacity:1;stroke:#000000;stroke-width:0.0541811;stroke-linecap:round;stroke-linejoin:round;stroke-miterlimit:4;stroke-dasharray:none;stroke-opacity:1;paint-order:markers stroke fill"
             d="m 195.10035,211.09242 -0.0745,6.39539 2.73745,-0.0346 0.0616,-6.42861 7.74032,0.0126 -4.31387,-4.49872 3.46383,0.0103 -4.29134,-3.96592 2.76147,0.0238 -8.10343,-6.86955 z"
             id="path167"
             sodipodi:nodetypes="ccccccccccc" />
        </g>
      </g>
    </g>
    <g
       id="g21557"
       transform="translate(-54.315888,-250.54803)">
      <text
         xml:space="preserve"
         style="font-style:normal;font-weight:normal;font-size:28.8108px;line-height:1.25;font-family:sans-serif;fill:#008300;fill-opacity:0.803922;stroke:none;stroke-width:0.05;stroke-miterlimit:4;stroke-dasharray:none"
         x="77.530022"
         y="273.31564"
         id="text12805"><tspan
           sodipodi:role="line"
           id="tspan12803"
           style="font-style:normal;font-variant:normal;font-weight:bold;font-stretch:normal;font-size:28.8108px;font-family:Dubai;-inkscape-font-specification:'Dubai, Bold';font-variant-ligatures:normal;font-variant-caps:normal;font-variant-numeric:normal;font-variant-east-asian:normal;fill:#008300;fill-opacity:0.803922;stroke:#000000;stroke-width:0.05;stroke-miterlimit:4;stroke-dasharray:none;stroke-opacity:1"
           x="77.530022"
           y="273.31564">REST</tspan></text>
      <path
         style="fill:#bcddb0;fill-opacity:0.765714;stroke:#000000;stroke-width:0.05;stroke-linecap:butt;stroke-linejoin:round;stroke-miterlimit:4;stroke-dasharray:none;stroke-opacity:1;paint-order:markers stroke fill"
         d="m 65.985811,266.91708 -0.0615,6.39481 -2.63713,3e-5 -0.0151,-6.35179 -7.73422,0.0362 3.91773,-12.28187 2.72839,0.0268 -3.08128,9.62025 6.86224,-0.0241 z"
         id="path3399"
         sodipodi:nodetypes="cccccccccc" />
      <path
         style="fill:url(#linearGradient3403);fill-opacity:1;stroke:#000000;stroke-width:0.0541811;stroke-linecap:round;stroke-linejoin:round;stroke-miterlimit:4;stroke-dasharray:none;stroke-opacity:1;paint-order:markers stroke fill"
         d="m 65.985811,266.91708 -0.0745,6.39539 2.73745,-0.0346 0.0616,-6.42861 7.74032,0.0126 -4.31387,-4.49872 3.46383,0.0103 -4.29134,-3.96592 2.76147,0.0238 -8.10343,-6.86955 z"
         id="path3401"
         sodipodi:nodetypes="ccccccccccc" />
    </g>
  </g>
</svg>
